<?xml version="1.0" encoding="UTF-8" standalone="no"?>
<svg
   xmlns:dc="http://purl.org/dc/elements/1.1/"
   xmlns:cc="http://creativecommons.org/ns#"
   xmlns:rdf="http://www.w3.org/1999/02/22-rdf-syntax-ns#"
   xmlns:svg="http://www.w3.org/2000/svg"
   xmlns="http://www.w3.org/2000/svg"
   xmlns:xlink="http://www.w3.org/1999/xlink"
   xmlns:sodipodi="http://sodipodi.sourceforge.net/DTD/sodipodi-0.dtd"
   xmlns:inkscape="http://www.inkscape.org/namespaces/inkscape"
   width="1474.56pt"
   height="1474.56pt"
   viewBox="0 0 1474.56 1474.56"
   version="1.1"
   id="svg985"
   sodipodi:docname="lobin2svg.svg"
   inkscape:version="1.0.2 (e86c870, 2021-01-15)"
   inkscape:export-filename="/home/juuniorlel/Imagens/lobin3svg.png"
   inkscape:export-xdpi="99.999992"
   inkscape:export-ydpi="99.999992">
  <metadata
     id="metadata989">
    <rdf:RDF>
      <cc:Work
         rdf:about="">
        <dc:format>image/svg+xml</dc:format>
        <dc:type
           rdf:resource="http://purl.org/dc/dcmitype/StillImage" />
        <dc:title></dc:title>
      </cc:Work>
    </rdf:RDF>
  </metadata>
  <sodipodi:namedview
     pagecolor="#ffffff"
     bordercolor="#666666"
     borderopacity="1"
     objecttolerance="10"
     gridtolerance="10"
     guidetolerance="10"
     inkscape:pageopacity="0"
     inkscape:pageshadow="2"
     inkscape:window-width="1920"
     inkscape:window-height="1006"
     id="namedview987"
     showgrid="false"
     inkscape:zoom="0.29203831"
     inkscape:cx="412.30185"
     inkscape:cy="771.4095"
     inkscape:window-x="0"
     inkscape:window-y="28"
     inkscape:window-maximized="1"
     inkscape:current-layer="svg985"
     inkscape:pagecheckerboard="true" />
  <defs
     id="defs976">
    <linearGradient
       id="linearGradient1788"
       gradientUnits="userSpaceOnUse"
       x1="419.97934"
       y1="1.8986305"
       x2="428.16882"
       y2="639.16663"
       spreadMethod="reflect"
       gradientTransform="matrix(0.68776253,0,0,0.72062558,421.30852,447.4935)">
      <stop
         stop-color="#8f1300"
         offset="0"
         stop-opacity="1"
         id="stop1784"
         style="stop-color:#000000;stop-opacity:1" />
      <stop
         stop-color="#ff0000"
         offset="1"
         stop-opacity="0"
         id="stop1786"
         style="stop-color:#ffffff;stop-opacity:1" />
    </linearGradient>
    <linearGradient
       inkscape:collect="always"
       id="linearGradient1772">
      <stop
         style="stop-color:#6f6f6f;stop-opacity:1"
         offset="0"
         id="stop1768" />
      <stop
         style="stop-color:#262626;stop-opacity:1"
         offset="1"
         id="stop1770" />
    </linearGradient>
    <linearGradient
       id="gradient0"
       gradientUnits="userSpaceOnUse"
       x1="419.97934"
       y1="1.8986305"
       x2="428.16882"
       y2="639.16663"
       spreadMethod="reflect"
       gradientTransform="matrix(0.68776253,0,0,0.72062558,421.30852,447.4935)">
      <stop
         stop-color="#8f1300"
         offset="0"
         stop-opacity="1"
         id="stop971"
         style="stop-color:#4d4646;stop-opacity:1" />
      <stop
         stop-color="#ff0000"
         offset="1"
         stop-opacity="0"
         id="stop973"
         style="stop-color:#f6ebeb;stop-opacity:1" />
    </linearGradient>
    <linearGradient
       inkscape:collect="always"
       xlink:href="#linearGradient1772"
       id="linearGradient1766"
       x1="478.78668"
       y1="1031.4548"
       x2="995.14514"
       y2="1225.1884"
       gradientUnits="userSpaceOnUse" />
    <radialGradient
       inkscape:collect="always"
       xlink:href="#linearGradient1772"
       id="radialGradient1782"
       cx="1077.4419"
       cy="68.497192"
       fx="1077.4419"
       fy="68.497192"
       r="318.42111"
       gradientUnits="userSpaceOnUse"
       spreadMethod="pad"
       gradientTransform="matrix(1.6369847,0,0,1.6369847,-716.97006,-74.062286)" />
  </defs>
  <rect
     style="opacity:1;fill:url(#radialGradient1782);fill-opacity:1;stroke:#fe0000;stroke-width:0;stroke-miterlimit:4;stroke-dasharray:none;stroke-opacity:1"
     id="rect1774"
     width="1042.5011"
     height="1042.5011"
     x="525.53534"
     y="-483.18393"
     transform="rotate(42.855207)" />
  <g
     id="g1726"
     transform="matrix(1.6369847,0,0,1.6369847,-426.54306,-710.22544)">
    <path
       style="fill:url(#linearGradient1766);fill-opacity:1;stroke:#000000;stroke-width:0;stroke-linecap:butt;stroke-linejoin:miter;stroke-miterlimit:4;stroke-dasharray:none;stroke-opacity:1"
       d="m 400.45262,950.65206 c -3.20274,77.73564 -12.59593,125.78684 0,279.28004 -1.23609,24.5113 15.51914,37.8983 38.75628,39.8718 l 544.35534,-5.3457 c 16.37396,-4.3646 35.91966,-14.3102 45.43736,-34.1841 -10.1866,-76.9334 -11.4866,-172.9433 -7.8616,-279.52529 z"
       id="path1558"
       sodipodi:nodetypes="ccccccc" />
    <path
       style="fill:#1a1a1a;stroke:#000000;stroke-width:0;stroke-linecap:butt;stroke-linejoin:miter;stroke-miterlimit:4;stroke-dasharray:none;stroke-opacity:1"
       d="m 400.45262,950.65206 v 78.44404 h 630.49798 v -79.04634 c -230.09301,-11.29229 -429.89049,-5.1114 -630.49798,0.6023 z"
       id="path1574"
       sodipodi:nodetypes="ccccc" />
    <path
       style="fill:#ffffff;stroke:#000000;stroke-width:0;stroke-linecap:butt;stroke-linejoin:miter;stroke-miterlimit:4;stroke-dasharray:none;stroke-opacity:1"
       d="m 592.58912,953.158 c -31.60678,-1.87579 -77.55996,-10.59383 -101.03445,15.76141 l -49.35032,55.40649 c 33.71564,-2.1975 67.49057,-4.1116 102.12194,-1.9309"
       id="path1612-3-6-3"
       sodipodi:nodetypes="cscc" />
    <path
       style="fill:#f9f9f9;stroke:#000000;stroke-width:0;stroke-linecap:butt;stroke-linejoin:miter;stroke-miterlimit:4;stroke-dasharray:none;stroke-opacity:1"
       d="m 791.30613,953.21658 -100.17485,-0.27282 -50.20993,71.44074 100.39321,-0.038"
       id="path1612-3-5" />
    <path
       style="fill:#ffffff;stroke:#000000;stroke-width:0;stroke-linecap:butt;stroke-linejoin:miter;stroke-miterlimit:4;stroke-dasharray:none;stroke-opacity:1"
       d="m 991.46683,953.48347 c -34.26053,-1.47638 -72.41731,-5.44088 -100.50813,-2.97733 -20.03354,43.75679 -33.82957,52.66216 -49.87667,74.14516 29.25849,-0.665 59.74664,-1.1393 100.3932,-0.038"
       id="path1612-7"
       sodipodi:nodetypes="cccc" />
    <g
       aria-label="Wolf"
       id="text1731"
       style="font-style:normal;font-weight:normal;font-size:256px;line-height:1.25;font-family:sans-serif;fill:#000000;fill-opacity:1;stroke:none;stroke-width:0.75"
       transform="translate(-24.134597,113.13367)">
      <path
         id="path1745"
         style="font-style:italic;font-variant:normal;font-weight:normal;font-stretch:normal;font-size:256px;font-family:Z003;-inkscape-font-specification:'Z003 Italic';fill:#ffffff;stroke-width:0.75"
         d="m 874.48501,1113.3873 c 37.25861,-7.4458 37.45943,-32.2726 55.73462,-81.6979 10.87868,-4.7144 15.91916,-0.9959 22.528,0 l 10.752,-8.192 c -11.15169,-2.0749 -22.00803,-3.0615 -31.232,0 3.64959,-38.55408 13.61936,-50.35815 27.57228,-59.84568 3.81054,-2.59104 9.22181,18.45442 9.22181,18.45442 l 15.60161,-4.84771 c 0,0 3.76077,-18.7676 -7.0833,-25.58768 -12.03068,-7.56636 -28.2308,-12.84304 -45.6388,4.05296 -14.336,14.08 -16.42077,40.32021 -18.3616,67.77369 -5.20003,2.2564 -14.7143,0.7978 -21.504,0 -1.5028,5.5246 -8.65483,6.944 -14.336,8.192 10.57111,1.9104 22.0783,2.8589 33.792,0 -6.81639,33.5291 -12.59516,57.5925 -37.04662,81.6979 z m -0.36949,-15.5472 c -5.376,3.072 -5.376,3.072 -16.384,9.984 -7.424,4.608 -11.776,6.656 -14.592,6.656 -2.56,0 -4.608,-3.072 -4.608,-6.656 v -2.304 -2.304 c 0,-4.608 12.84017,-73.8307 22.31217,-109.92668 9.984,-37.888 12.288,-42.24 23.552,-42.24 3.84,0 6.4,0.256 12.544,1.792 l 11.008,-13.568 c -5.376,-1.28 -7.936,-1.536 -11.52,-1.536 -10.24,0 -18.176,3.84 -30.72,15.104 -11.264,9.984 -14.08,14.08 -17.408,23.296 -2.048,6.144 -12.59867,23.07216 -15.15867,34.33618 l -19.73208,82.5733 c -0.256,1.536 -0.512,3.072 -0.512,4.608 0,7.936 8.448,15.616 8.448,15.616 l 4.83585,2.9605 v 0 c 1.536,0.768 12.09473,13.0967 47.93473,-12.7593 z m -87.76773,-91.7507 c -10.24,0 -34.19528,-4.1691 -49.29928,7.0949 -16.384,12.288 -20.33272,50.5051 -20.33272,76.1051 -2.22357,36.616 70.72485,32.2087 76.63789,13.6545 10.24,-14.08 16.03411,-55.6385 16.03411,-73.3025 0,-13.824 -9.472,-23.552 -23.04,-23.552 z m -13.312,12.032 c 18.39277,6.2537 -8.2176,93.4716 -19.456,84.48 -18.70043,-14.9617 3.27847,-89.9805 19.456,-84.48 z m -212.73533,92.416 c 34.81222,-29.9292 61.56006,-62.943 76.8,-112.89598 -0.512,30.71998 -3.328,94.71998 -5.632,118.01598 l 16.384,-5.376 c 8.704,-13.312 11.776,-17.664 28.16,-37.888 48.64,-59.392 65.28,-88.57598 65.28,-113.40798 0,-7.168 -1.024,-11.264 -3.84,-16.896 -3.584,-2.048 -4.352,-2.304 -10.24,-4.096 -7.168,3.328 -9.984,5.12 -16.384,10.496 6.912,7.168 9.472,13.824 9.472,24.32 -7.80039,58.18558 -29.10863,26.45667 -41.75708,40.86768 0.768,-11.776 -24.29092,54.8763 -24.29092,52.0603 l 1.536,-36.096 c 0.768,-17.92 1.28,-29.44 3.584,-65.02398 l -14.848,5.888 c -11.776,19.968 -42.24966,21.68561 -61.44966,47.79758 2.816,-20.73597 -1.27034,-12.7256 4.87366,-43.44558 5.376,-1.792 8.448,-3.584 13.312,-8.192 -49.664,0.512 -52.736,0.512 -61.952,3.584 -22.016,7.168 -36.352,24.832 -36.352,45.05598 0,8.704 2.048,15.616 6.4,23.04 l 19.2,-12.032 c -6.144,-9.216 17.83316,-14.702 17.83316,-23.406 0,-10.75197 -21.16116,-20.11398 -11.68916,-23.44198 12.99982,10.78986 12.8,-2.816 31.488,-3.072 -2.56,17.664 -3.072,22.016 -5.376,35.83998 -9.728,58.88 -13.312,80.896 -13.568,82.432 10.21292,-3.0003 15.97413,-7.9575 13.056,15.872 z"
         sodipodi:nodetypes="cccccsccsccccccccsscscsccsccccscccccscccssssscccccscccccccccccccsccsccccc" />
    </g>
  </g>
  <g
     id="g1578"
     transform="matrix(1.407057,0,0,1.2610415,-266.73064,-255.64183)">
    <path
       id="path980"
       fill="url(#gradient0)"
       fill-rule="evenodd"
       stroke="#000000"
       stroke-opacity="0"
       stroke-width="0"
       stroke-linecap="round"
       stroke-linejoin="bevel"
       d="m 421.43328,460.37562 c -3.69306,-7.19438 75.73343,18.78327 88.10652,58.49739 9.55498,68.6619 -16.09387,66.43382 -30.69246,86.45617 23.00832,65.09601 42.39612,129.53449 59.19759,182.23428 2.52227,15.36928 -65.31734,-13.25551 -60.11969,-6.44461 -12.58321,38.27517 57.01292,61.94464 67.89381,61.47162 10.88162,-0.47371 -36.92781,8.31877 -46.12647,8.42756 -9.19801,0.10879 45.62043,48.97831 69.96712,45.60797 8.39894,-1.16292 -17.17793,10.28038 -13.73429,21.0689 6.65696,20.85202 44.67603,32.89503 48.13047,36.8692 19.04229,21.90615 56.88644,84.5042 110.20254,106.1514 50.54333,-19.9865 85.73924,-56.5052 114.03778,-106.2953 6.52882,-3.64644 48.12471,-15.82027 46.36833,-31.52004 5.28353,-10.68042 -24.20848,-12.67095 -19.31006,-24.34422 16.56464,8.26851 74.83891,-26.78642 70.61929,-50.76021 2.83251,-7.59307 -52.22773,3.06669 -49.4528,-4.85962 21.23128,6.36129 88.44579,-38.58088 80.54929,-59.09069 3.23994,-9.85832 -63.93137,9.31162 -61.05495,0.26646 22.34485,-70.26547 9.41245,-44.25089 51.9873,-161.76096 -24.07027,-15.87535 -44.2902,-35.92592 -37.68219,-85.05915 0.64353,-52.0472 46.72753,-64.25236 96.24509,-73.44612 -53.03895,-35.4248 -115.08654,-9.02107 -186.14276,79.21253 -73.81676,15.68738 -148.76436,13.39252 -224.84281,-6.88319 -93.4457,-81.21614 -151.32168,-106.64782 -173.62836,-76.29525"
       style="fill:url(#gradient0)" />
    <path
       id="shape01"
       fill="#320300"
       stroke="#000000"
       stroke-width="0.704002"
       stroke-linecap="square"
       stroke-linejoin="bevel"
       d="m 449.94994,466.1441 c -1.91464,4.31172 67.05098,17.41476 61.60649,75.49435 2.92517,43.01891 -16.2647,44.38302 -32.0532,63.74123 -16.74086,-16.36833 -23.48609,-55.32719 -29.55329,-139.23558 z"
       sodipodi:nodetypes="cccc"
       style="stroke-width:0;stroke-miterlimit:4;stroke-dasharray:none" />
    <path
       id="shape0"
       fill="#320300"
       fill-rule="evenodd"
       stroke="#000000"
       stroke-opacity="0"
       stroke-width="0"
       stroke-linecap="square"
       stroke-linejoin="bevel"
       d="m 971.97446,471.62201 c -22.25255,5.69828 -69.28996,17.48109 -62.95561,88.18827 1.90356,43.28649 33.74071,58.86139 38.98373,62.54063 19.30253,-23.43008 31.83823,-94.88482 23.97188,-150.7289 z"
       sodipodi:nodetypes="cccc" />
    <path
       id="shape1"
       fill="#320300"
       fill-rule="evenodd"
       stroke="#000000"
       stroke-opacity="0"
       stroke-width="0"
       stroke-linecap="square"
       stroke-linejoin="bevel"
       d="m 713.96503,1058.4137 c -12.52815,0.2348 -22.04807,-24.8241 -29.67643,-35.0112 -7.62843,-10.1871 -26.6679,-25.43129 -21.62209,-38.20889 5.04581,-12.77761 6.0485,-10.86127 13.98279,-14.7227 7.93429,-3.86142 29.36265,9.66788 37.32379,9.11403 7.96121,-0.55378 24.17882,-13.68182 32.61663,-10.51619 8.43708,3.16564 19.67861,11.11115 19.78947,19.63028 0.1526,11.74497 -22.37725,31.53267 -26.01957,36.10567 -5.49083,6.8933 -13.86645,33.3749 -26.39459,33.609 z" />
    <path
       id="shape02"
       fill="#ffffff"
       fill-rule="evenodd"
       stroke="#000000"
       stroke-width="43.2"
       stroke-linecap="butt"
       stroke-linejoin="round"
       d="m 826.45836,744.33637 c -9.83593,21.93342 -18.94958,72.64158 -20.30494,88.00191 -1.14682,12.99731 4.11266,-8.6954 10.41244,2.15095 28.76584,-10.57163 29.29304,-50.46284 38.76262,-81.06948 1.65075,-23.26757 -7.97263,-26.29538 -28.87012,-9.08338 z"
       style="stroke-width:28.7829;stroke-miterlimit:4;stroke-dasharray:none" />
    <path
       id="shape03"
       fill="#ffffff"
       fill-rule="evenodd"
       stroke="#000000"
       stroke-width="43.2"
       stroke-linecap="butt"
       stroke-linejoin="round"
       d="m 611.04707,745.28511 c 9.83593,21.93342 18.94958,72.64158 20.30494,88.00191 1.14683,12.99731 -4.11266,-8.6954 -10.41243,2.15096 -28.76585,-10.57163 -29.29305,-50.46284 -38.76263,-81.06949 -1.65075,-23.26757 7.97263,-26.29538 28.87012,-9.08338 z"
       style="stroke-width:28.7829;stroke-miterlimit:4;stroke-dasharray:none" />
  </g>
  <g
     id="g1714"
     inkscape:transform-center-x="-304.19285"
     inkscape:transform-center-y="-424.45679"
     transform="matrix(1.1612837,-1.1537501,1.1537501,1.1612837,-1332.8621,204.023)">
    <path
       style="fill:#1a1a1a;stroke:#000000;stroke-width:0;stroke-linecap:butt;stroke-linejoin:miter;stroke-miterlimit:4;stroke-dasharray:none;stroke-opacity:1"
       d="m 1030.8525,856.3341 c -354.72791,-22.3139 -419.87747,0.3481 -629.8162,0.52215 -11.06783,45.32406 -1.90923,64.49599 -0.58368,93.79581 229.89506,-0.20955 420.99154,0.0784 630.49798,-0.6023 6.884,-23.40729 8.9754,-52.2409 -0.098,-93.71566 z"
       id="path1552"
       sodipodi:nodetypes="cccccc"
       inkscape:transform-center-x="-302.78789"
       inkscape:transform-center-y="-51.170065" />
    <path
       style="fill:#ffffff;stroke:#000000;stroke-width:0;stroke-linecap:butt;stroke-linejoin:miter;stroke-miterlimit:4;stroke-dasharray:none;stroke-opacity:1"
       d="m 988.99527,942.27268 c -34.09193,-0.8022 -72.97171,10.39807 -99.43701,-6.23516 -21.65074,-13.60732 -27.64537,-46.84801 -48.14101,-76.95566 27.47605,-2.31064 58.72924,-3.15414 100.39323,0.0462"
       id="path1612"
       sodipodi:nodetypes="cscc" />
    <path
       style="fill:#ffffff;stroke:#000000;stroke-width:0;stroke-linecap:butt;stroke-linejoin:miter;stroke-miterlimit:4;stroke-dasharray:none;stroke-opacity:1"
       d="m 791.64133,946.0408 c -34.13838,-1.3409 -74.9559,-5.97153 -104.54003,-5.22413 -17.05447,-25.52558 -30.51672,-37.07221 -45.84474,-81.40997 30.8472,-1.75932 61.06845,-3.9431 100.39321,0.0462"
       id="path1612-3"
       sodipodi:nodetypes="cccc" />
    <path
       style="fill:#ffffff;stroke:#000000;stroke-width:0;stroke-linecap:butt;stroke-linejoin:miter;stroke-miterlimit:4;stroke-dasharray:none;stroke-opacity:1"
       d="m 592.92433,946.11217 c -32.30402,-2.47425 -58.55524,-9.85055 -102.26885,-2.74214 -20.20208,-23.7119 -35.1806,-47.43594 -46.04188,-80.35982 36.03067,5.38276 66.1915,-1.02735 98.31918,-3.48594"
       id="path1612-3-6"
       sodipodi:nodetypes="cccc" />
  </g>
  <path
     style="opacity:1;fill:#cccccc;stroke:#000000;stroke-width:0;stroke-linecap:butt;stroke-linejoin:miter;stroke-miterlimit:4;stroke-dasharray:none;stroke-opacity:1"
     d="m 200.88819,784.14283 c 36.66277,-7.99234 77.70039,-0.0844 116.58546,0 63.11498,38.9983 94.59076,81.57181 134.22827,123.22305 -0.96716,23.95782 -1.83952,49.10715 0,74.91062 -70.33702,1.56577 -144.07133,13.98787 -251.31293,0.70897 -9.1948,-60.61269 -8.86039,-126.99529 0.4992,-198.84264 z"
     id="path1572"
     sodipodi:nodetypes="cccccc" />
</svg>
